HIERARCHY
ROOT Hips
{
	OFFSET 0.000000 0.000000 0.000000
	CHANNELS 6 Xposition Yposition Zposition Zrotation Yrotation Xrotation
	JOINT LHipJoint
	{
		OFFSET 0.000000 0.000000 0.000000
		CHANNELS 3 Zrotation Yrotation Xrotation
		JOINT LeftUpLeg
		{
			OFFSET 1.363060 -1.794630 0.839290
			CHANNELS 3 Zrotation Yrotation Xrotation
			JOINT LeftLeg
			{
				OFFSET 2.448110 -6.726130 0.000000
				CHANNELS 3 Zrotation Yrotation Xrotation
				JOINT LeftFoot
				{
					OFFSET 2.562200 -7.039590 0.000000
					CHANNELS 3 Zrotation Yrotation Xrotation
					JOINT LeftToeBase
					{
						OFFSET 0.157640 -0.433110 2.322550
						CHANNELS 3 Zrotation Yrotation Xrotation
						End Site
						{
							OFFSET 0.000000 0.000000 0.000000
						}
					}
				}
			}
		}
	}
	JOINT RHipJoint
	{
		OFFSET 0.000000 0.000000 0.000000
		CHANNELS 3 Zrotation Yrotation Xrotation
		JOINT RightUpLeg
		{
			OFFSET -1.305520 -1.794630 0.839290
			CHANNELS 3 Zrotation Yrotation Xrotation
			JOINT RightLeg
			{
				OFFSET -2.542530 -6.985550 0.000000
				CHANNELS 3 Zrotation Yrotation Xrotation
				JOINT RightFoot
				{
					OFFSET -2.568260 -7.056230 0.000000
					CHANNELS 3 Zrotation Yrotation Xrotation
					JOINT RightToeBase
					{
						OFFSET -0.164730 -0.452590 2.363150
						CHANNELS 3 Zrotation Yrotation Xrotation
						End Site
						{
							OFFSET 0.000000 0.000000 0.000000
						}
					}
				}
			}
		}
	}
	JOINT LowerBack
	{
		OFFSET 0.000000 0.000000 0.000000
		CHANNELS 3 Zrotation Yrotation Xrotation
		JOINT Spine
		{
			OFFSET 0.028270 2.035590 -0.193380
			CHANNELS 3 Zrotation Yrotation Xrotation
			JOINT Spine1
			{
				OFFSET 0.056720 2.048850 -0.042750
				CHANNELS 3 Zrotation Yrotation Xrotation
				JOINT Neck
				{
					OFFSET 0.000000 0.000000 0.000000
					CHANNELS 3 Zrotation Yrotation Xrotation
					JOINT Neck1
					{
						OFFSET -0.054170 1.746240 0.172020
						CHANNELS 3 Zrotation Yrotation Xrotation
						JOINT Head
						{
							OFFSET 0.104070 1.761360 -0.123970
							CHANNELS 3 Zrotation Yrotation Xrotation
							End Site
							{
								OFFSET 0.000000 0.000000 0.000000
							}
						}
					}
				}
				JOINT LeftShoulder
				{
					OFFSET 0.000000 0.000000 0.000000
					CHANNELS 3 Zrotation Yrotation Xrotation
					JOINT LeftArm
					{
						OFFSET 3.362410 1.200890 -0.311210
						CHANNELS 3 Zrotation Yrotation Xrotation
						JOINT LeftForeArm
						{
							OFFSET 4.983000 -0.000000 -0.000000
							CHANNELS 3 Zrotation Yrotation Xrotation
							JOINT LeftHand
							{
								OFFSET 3.483560 -0.000000 -0.000000
								CHANNELS 3 Zrotation Yrotation Xrotation
								JOINT LeftFingerBase
								{
									OFFSET 0.000000 0.000000 0.000000
									CHANNELS 3 Zrotation Yrotation Xrotation
									JOINT LeftHandIndex1
									{
										OFFSET 0.715260 -0.000000 -0.000000
										CHANNELS 3 Zrotation Yrotation Xrotation
										End Site
										{
											OFFSET 0.000000 0.000000 0.000000
										}
									}
								}
								JOINT LThumb
								{
									OFFSET 0.000000 0.000000 0.000000
									CHANNELS 3 Zrotation Yrotation Xrotation
									End Site
									{
										OFFSET 0.000000 0.000000 0.000000
									}
								}
							}
						}
					}
				}
				JOINT RightShoulder
				{
					OFFSET 0.000000 0.000000 0.000000
					CHANNELS 3 Zrotation Yrotation Xrotation
					JOINT RightArm
					{
						OFFSET -3.136600 1.374050 -0.404650
						CHANNELS 3 Zrotation Yrotation Xrotation
						JOINT RightForeArm
						{
							OFFSET -5.241900 -0.000000 -0.000000
							CHANNELS 3 Zrotation Yrotation Xrotation
							JOINT RightHand
							{
								OFFSET -3.444170 -0.000000 -0.000000
								CHANNELS 3 Zrotation Yrotation Xrotation
								JOINT RightFingerBase
								{
									OFFSET 0.000000 0.000000 0.000000
									CHANNELS 3 Zrotation Yrotation Xrotation
									JOINT RightHandIndex1
									{
										OFFSET -0.622530 -0.000000 -0.000000
										CHANNELS 3 Zrotation Yrotation Xrotation
										End Site
										{
											OFFSET 0.000000 0.000000 0.000000
										}
									}
								}
								JOINT RThumb
								{
									OFFSET 0.000000 0.000000 0.000000
									CHANNELS 3 Zrotation Yrotation Xrotation
									End Site
									{
										OFFSET 0.000000 0.000000 0.000000
									}
								}
							}
						}
					}
				}
			}
		}
	}
}
MOTION
Frames: 9
Frame Time: 0.008333
-0.396109 0.197736 5.074076 3.803611 12.869173 -0.386332 -1.682245 1.894831 2.580797 -3.244325 1.022800 26.991737 2.911881 -5.356518 5.342507 4.773254 -13.525551 -7.491252 2.513995 -4.516340 -11.437515 -8.586647 -3.513616 -1.724117 3.598694 6.586971 -31.436321 -0.498619 -7.353218 8.617180 -0.651999 3.056110 -18.640661 1.357679 2.478941 -34.020634 -3.668714 -5.089044 1.168337 -0.665842 -6.395510 -0.740189 6.733284 -6.349201 2.528450 -0.994187 0.619492 2.334360 1.822441 1.606837 3.082603 0.846098 -0.278798 0.894914 -2.396400 -0.220539 -0.182890 -29.148863 -55.232346 28.682055 15.662890 -20.478260 -5.276105 0.332214 -3.173360 -6.383907 27.802076 -7.845904 -17.165535 0.030098 0.000000 0.000000 22.435360 -11.189588 -6.237902 5.031055 -3.742470 -0.077396 -2.014853 -36.049267 -29.050575 30.157776 -15.697513 14.782993 1.497377 -0.298093 42.972046 -64.820938 37.865547 46.161476 7.582264 0.000000 0.000000 -26.041502 7.445247 75.540215
-0.444364 0.250774 4.961272 3.833148 13.052445 -0.326644 -1.669676 1.910406 2.569733 -3.177482 1.140786 27.706331 2.868595 -5.538342 4.944474 4.812346 -13.293787 -7.725341 2.539874 -4.526060 -11.796739 -8.560122 -3.549301 -1.750862 3.760978 6.521008 -31.598934 -0.547200 -7.382657 8.989535 -0.669930 2.970319 -18.773773 1.346261 2.620709 -34.234795 -3.575013 -5.107761 1.184477 -0.629663 -6.377584 -0.753753 6.766568 -6.339496 2.606158 -1.029611 0.705088 2.210715 1.827012 1.594651 3.105275 0.847813 -0.296899 0.853815 -2.407434 -0.209313 -0.211720 -30.140785 -54.693935 28.115482 15.898949 -20.816511 -5.529922 0.317411 -3.251536 -6.152169 27.751791 -7.975424 -17.271049 0.007974 0.000000 0.000000 22.471449 -11.185769 -6.586595 5.084770 -3.748720 -0.084012 -1.990801 -35.692665 -29.654747 30.400234 -16.163759 14.798794 1.552192 -0.356784 43.836308 -66.322182 38.811855 45.876816 7.565095 0.000000 0.000000 -25.076899 7.206403 76.025970
-0.497868 0.321603 4.890389 3.859599 13.230186 -0.241430 -1.634542 1.933870 2.562787 -3.101448 1.265548 28.406752 2.819149 -5.723828 4.521948 4.845012 -13.114985 -8.011441 2.560864 -4.563545 -12.163898 -8.544294 -3.589728 -1.760235 3.974699 6.470373 -31.691284 -0.578766 -7.385069 9.411763 -0.678908 2.952986 -18.805948 1.343428 2.790762 -34.311085 -3.454741 -5.130858 1.197683 -0.600227 -6.357997 -0.751514 6.805414 -6.327465 2.688363 -1.064703 0.787207 2.062894 1.822720 1.568457 3.103536 0.836998 -0.317384 0.808804 -2.430584 -0.191343 -0.239412 -31.163759 -54.165680 27.552828 16.140093 -21.120523 -5.783071 0.302697 -3.330146 -5.936813 27.708250 -8.075705 -17.344896 -0.014099 0.000000 0.000000 22.599077 -11.119349 -6.872192 5.185900 -3.731803 -0.085824 -1.805975 -35.238285 -30.145840 30.763752 -16.432096 14.952973 1.620274 -0.397114 44.824223 -67.318291 39.884468 45.949959 7.549953 0.000000 0.000000 -24.223860 6.813645 76.382362
-0.558935 0.372178 4.738557 3.871037 13.381001 -0.178738 -1.620876 1.946549 2.542798 -3.051741 1.367164 29.056286 2.759414 -5.916503 4.088185 4.879220 -12.947409 -8.294068 2.581920 -4.616601 -12.541844 -8.541753 -3.631752 -1.768705 4.188756 6.403612 -31.778572 -0.608746 -7.386606 9.861370 -0.686815 2.901004 -18.828110 1.342003 2.974468 -34.355034 -3.328032 -5.153886 1.216875 -0.572320 -6.339820 -0.753656 6.839847 -6.316647 2.764173 -1.098114 0.871657 1.950308 1.830042 1.573034 3.141637 0.845824 -0.320945 0.800565 -2.414890 -0.134037 -0.257883 -32.017048 -53.576145 27.177246 16.435694 -21.343216 -6.018744 0.295438 -3.390833 -5.432109 27.842796 -7.949698 -17.300713 -0.016177 0.000000 0.000000 23.318655 -10.351367 -6.479439 5.390326 -3.646054 -0.066923 -1.273026 -34.674324 -30.501362 31.270288 -16.543133 15.160093 1.691995 -0.431310 45.817677 -68.240234 41.023884 46.313278 7.538179 0.000000 0.000000 -22.870716 6.664851 77.340904
-0.603607 0.457974 4.674184 4.013578 13.645096 -0.117607 -1.598487 1.978385 2.520778 -3.003999 1.462857 29.643501 2.682965 -6.094786 3.743736 4.917809 -12.768586 -8.658566 2.588408 -4.971579 -13.357315 -8.534095 -3.673187 -1.842453 4.389465 6.305972 -31.881996 -0.642927 -7.439884 10.334399 -0.714025 2.706646 -19.095854 1.314198 3.113031 -34.908371 -3.302308 -5.212888 1.143210 -0.569095 -6.352337 -0.803106 6.847524 -6.316363 2.790327 -1.164809 0.933000 1.846861 1.831589 1.566285 3.153637 0.828432 -0.334814 0.771814 -2.423527 -0.095693 -0.283331 -33.003540 -53.030975 26.622488 16.680637 -21.608311 -6.271716 0.283732 -3.463715 -5.184715 27.853868 -8.613886 -17.482523 -0.032303 0.000000 0.000000 23.543182 -10.143783 -6.578239 5.493729 -3.574528 -0.061909 -0.875556 -34.148952 -30.982761 31.601767 -16.752901 15.688687 1.770134 -0.475693 46.587505 -69.887169 41.592392 45.938038 7.510127 0.000000 0.000000 -21.752575 6.447219 78.877541
-0.666396 0.469217 4.257033 4.139509 13.859407 -0.098571 -1.601081 2.013882 2.508068 -2.938285 1.577967 30.164843 2.594874 -6.204967 3.621125 4.978080 -12.459474 -8.801306 2.628840 -5.256105 -13.866392 -8.435510 -3.681609 -1.924628 4.604176 6.217721 -31.952955 -0.632461 -7.426911 11.045630 -0.707076 2.884996 -19.111595 1.330079 3.444624 -35.420425 -3.267426 -5.249191 1.151688 -0.547536 -6.353577 -0.823102 6.880069 -6.310064 2.824172 -1.237482 0.976234 1.715631 1.828986 1.538295 3.124433 0.806116 -0.353921 0.733366 -2.443517 -0.070741 -0.312305 -34.085495 -52.526306 25.929253 16.921507 -21.826273 -6.517022 0.281353 -3.512861 -4.594873 28.080933 -9.181133 -17.565340 -0.029827 0.000000 0.000000 24.019880 -9.519904 -6.244382 5.601601 -3.457039 -0.058618 -0.459436 -33.640327 -31.457386 31.918037 -16.900955 16.207653 1.852026 -0.483905 47.605412 -68.038811 43.260300 47.081715 7.514033 0.000000 0.000000 -20.861744 6.197477 79.730133
-0.691395 0.536308 4.091862 4.243309 14.026289 -0.038302 -1.535308 2.066695 2.525775 -2.785589 1.758879 30.628502 2.521396 -6.290227 3.516642 5.013448 -12.244634 -9.037217 2.629975 -5.457288 -14.094571 -8.397035 -3.720658 -2.028465 4.730394 6.077046 -32.069195 -0.638827 -7.492641 11.339696 -0.763874 3.340088 -19.250816 1.351032 3.792449 -35.977200 -3.209209 -5.258543 1.223866 -0.531571 -6.343246 -0.810687 6.928306 -6.312944 2.869434 -1.296251 1.025988 1.579300 1.832555 1.499289 3.071707 0.804817 -0.369949 0.708452 -2.459464 -0.045311 -0.338854 -35.088238 -51.988396 25.185301 17.144205 -22.076847 -6.776354 0.271419 -3.582636 -4.286915 28.075836 -9.827950 -17.645391 -0.053736 0.000000 0.000000 23.875996 -9.724741 -6.712703 5.601151 -3.421089 -0.080872 -0.181680 -33.223835 -31.834929 32.661598 -16.258232 17.022863 1.989729 -0.415462 49.269928 -61.253571 46.736012 50.183159 7.534786 0.000000 0.000000 -20.358242 5.745830 79.140221
-0.725197 0.589185 3.888538 4.326459 14.154653 -0.008321 -1.477381 2.109080 2.531825 -2.671012 1.909788 31.008802 2.434477 -6.398205 3.324866 5.035244 -12.066332 -9.275716 2.616635 -5.656981 -14.277415 -8.384253 -3.772666 -2.137783 4.837142 5.933268 -32.164425 -0.648226 -7.567222 11.729145 -0.782310 3.847457 -19.377106 1.373101 4.122332 -36.724033 -3.194584 -5.280202 1.238027 -0.530979 -6.349904 -0.845467 6.946742 -6.325976 2.892211 -1.341822 1.085051 1.477817 1.851841 1.490810 3.058577 0.834199 -0.363789 0.731346 -2.424330 0.023223 -0.354146 -35.819992 -51.358440 24.671345 17.438025 -22.220007 -7.011546 0.272166 -3.626849 -3.610133 28.219471 -10.213694 -17.605911 -0.061178 0.000000 0.000000 24.125029 -9.372658 -6.669171 5.708932 -3.316545 -0.087759 0.389540 -32.759842 -32.063221 33.244648 -15.684043 17.281036 2.072660 -0.433362 50.182705 -59.630932 47.757149 51.205124 7.502911 0.000000 0.000000 -19.175627 5.502293 79.230377
-0.761311 0.658608 3.838544 4.453953 14.353682 -0.001394 -1.412805 2.137235 2.539330 -2.567182 2.060182 31.473064 2.370841 -6.476357 3.137879 5.053645 -12.066999 -9.625767 2.555086 -6.039669 -14.974316 -8.428495 -3.846315 -2.243009 4.779888 5.693876 -32.450253 -0.672787 -7.666070 11.887968 -0.857710 4.354296 -19.240089 1.441539 4.580932 -37.094627 -3.080744 -5.250662 1.390094 -0.496809 -6.300866 -0.749241 7.033567 -6.306446 3.029495 -1.329249 1.165844 1.426804 1.883527 1.485749 3.036020 0.876264 -0.351932 0.760403 -2.387380 0.096899 -0.372483 -36.573593 -50.740475 24.139341 17.719774 -22.375874 -7.256231 0.272065 -3.681620 -3.103683 28.249161 -10.689195 -17.608393 -0.061125 0.000000 0.000000 24.380753 -8.835672 -6.495021 5.822160 -3.237124 -0.108772 0.691903 -32.535267 -32.450603 33.510517 -15.653013 16.615154 2.050164 -0.505141 50.765247 -58.380833 49.300682 53.484447 7.533798 0.000000 0.000000 -18.696554 5.114418 77.700172
